<svg version="1.1" id="Layer_1" xmlns="http://www.w3.org/2000/svg" xmlns:xlink="http://www.w3.org/1999/xlink" x="0px" y="0px"
	 width="100%" viewBox="0 0 2107 2832" enable-background="new 0 0 2107 2832" xml:space="preserve">
<path fill="#003d91" opacity="1.000000" stroke="none"
	d="
M2110.000000,1120.000000 
	C2110.000000,1692.000000 2110.000000,2263.000000 2110.000000,2834.000000 
	C1407.333374,2834.000000 704.666687,2834.000000 2.000000,2834.000000 
	C2.000000,1890.000000 2.000000,946.000000 2.000000,2.000000 
	C704.666687,2.000000 1407.333374,2.000000 2110.000000,2.000000 
	C2110.000000,374.333344 2110.000000,746.666687 2110.000000,1120.000000 
M1887.671997,231.011078 
	C1887.671997,220.494308 1887.671997,209.977539 1887.671997,199.138916 
	C1645.153198,199.138916 1404.032227,199.138916 1163.002808,199.138916 
	C1160.848267,211.503326 1161.447998,922.826355 1163.440430,929.307983 
	C1404.641479,929.307983 1645.755371,929.307983 1887.671997,929.307983 
	C1887.671997,696.760803 1887.671997,464.883698 1887.671997,231.011078 
M333.529205,1940.523438 
	C321.117035,1952.119019 307.861359,1962.942383 296.426514,1975.432739 
	C206.641739,2073.506348 173.258804,2189.375488 193.144348,2319.751465 
	C207.357315,2412.936035 251.858765,2491.954102 322.574280,2553.791992 
	C430.372681,2648.057373 555.530701,2679.137695 694.859375,2643.625732 
	C927.253296,2584.393066 1036.364136,2349.401855 987.967590,2158.269287 
	C961.297974,2052.942871 903.670898,1969.372559 812.461853,1909.890137 
	C759.113770,1875.098999 700.112488,1855.193481 636.838257,1848.550903 
	C600.300171,1844.715210 563.665161,1844.317627 527.252563,1850.592773 
	C455.085907,1863.029419 390.866455,1892.701782 333.529205,1940.523438 
M1117.922607,2282.909180 
	C1119.125854,2293.158203 1119.975830,2303.462891 1121.587036,2313.647217 
	C1137.212891,2412.423096 1182.866455,2495.431152 1258.808228,2559.636475 
	C1360.476562,2645.592773 1478.303833,2676.151855 1608.871216,2647.324219 
	C1722.303589,2622.280029 1810.836670,2560.255859 1870.465088,2459.339844 
	C1917.792358,2379.242676 1937.595703,2292.817871 1925.370728,2200.398926 
	C1912.602661,2103.874268 1870.978027,2020.730835 1799.327393,1954.668091 
	C1700.802856,1863.827393 1583.294189,1831.381348 1451.844849,1852.006226 
	C1323.900879,1872.081055 1206.461792,1965.315552 1153.789917,2082.474365 
	C1125.313599,2145.814941 1114.375488,2212.052734 1117.922607,2282.909180 
M654.995972,162.335999 
	C602.108093,162.335999 549.220154,162.335999 495.412323,162.335999 
	C495.412323,167.068115 495.412262,170.664658 495.412323,174.261215 
	C495.413086,219.917633 495.340332,265.574280 495.501160,311.230164 
	C495.523010,317.438934 494.229401,322.761871 490.932739,328.136353 
	C415.528625,451.065643 340.263855,574.080444 264.979462,697.083130 
	C217.687744,774.350403 170.392731,851.615601 123.168755,928.924194 
	C121.206177,932.137024 118.002335,934.996765 118.571159,939.819641 
	C122.183266,939.819641 125.497757,939.819702 128.812241,939.819702 
	C202.462357,939.819580 276.113220,939.669739 349.761566,940.031067 
	C357.883575,940.070984 362.111816,937.318604 366.158112,930.598755 
	C439.688019,808.484375 513.455688,686.513245 587.186401,564.519775 
	C588.997803,561.522644 590.964233,558.619263 593.571106,554.563171 
	C671.699585,683.841125 749.138672,811.978394 826.068970,939.273865 
	C907.655396,939.273865 987.813721,939.273865 1069.429810,939.273865 
	C1067.179932,935.212097 1065.591553,932.068420 1063.758301,929.074768 
	C941.306946,729.118164 818.850769,529.164429 696.289551,329.275116 
	C692.848816,323.663513 691.241577,318.114349 691.272156,311.498840 
	C691.484558,265.510132 691.394165,219.520004 691.367432,173.530350 
	C691.365356,169.991531 691.106323,166.452866 690.943909,162.335999 
	C678.918274,162.335999 667.955933,162.335999 654.995972,162.335999 
M1618.944946,1744.982178 
	C1618.944946,1503.098877 1618.944946,1261.215576 1618.944946,1018.865295 
	C1554.894775,1018.865295 1492.075684,1018.865295 1428.216919,1018.865295 
	C1428.216919,1067.186157 1428.216919,1114.996216 1428.216919,1164.028076 
	C1364.096802,1164.028076 1301.003174,1164.028076 1238.107666,1164.028076 
	C1238.107666,1222.082886 1238.107666,1278.898804 1238.107666,1336.604004 
	C1301.629761,1336.604004 1364.470337,1336.604004 1427.175537,1336.604004 
	C1429.044922,1350.057861 1428.517700,1423.717651 1426.371582,1431.705322 
	C1363.819336,1431.705322 1300.998657,1431.705322 1238.023071,1431.705322 
	C1238.023071,1489.485596 1238.023071,1546.291870 1238.023071,1604.015869 
	C1301.449219,1604.015869 1364.281494,1604.015869 1428.142578,1604.015869 
	C1428.142578,1657.058350 1428.142578,1709.193970 1428.142578,1761.633789 
	C1492.285889,1761.633789 1555.389282,1761.633789 1618.945068,1761.633789 
	C1618.945068,1756.283447 1618.945068,1751.628784 1618.944946,1744.982178 
M782.999634,1448.573730 
	C814.852966,1448.573730 846.706360,1448.573730 878.700928,1448.573730 
	C878.700928,1390.345581 878.700928,1333.532471 878.700928,1276.022705 
	C846.399414,1276.022705 814.774963,1276.089233 783.150879,1276.004028 
	C751.658386,1275.919067 720.154480,1276.385254 687.697632,1275.693726 
	C687.697632,1189.295898 687.697632,1104.155884 687.697632,1018.955688 
	C623.870972,1018.955688 561.041016,1018.955688 498.294586,1018.955688 
	C496.369629,1033.818848 497.078369,1754.932495 498.908630,1761.713989 
	C561.776001,1761.713989 624.605896,1761.713989 688.351929,1761.713989 
	C688.351929,1657.276978 688.351929,1553.453491 688.351929,1448.573853 
	C719.840271,1448.573853 750.419922,1448.573853 782.999634,1448.573730 
z"/>
<path fill="#FEFEFF" opacity="1.000000" stroke="none" 
	d="
M1887.671997,232.008850 
	C1887.671997,464.883698 1887.671997,696.760803 1887.671997,929.307983 
	C1645.755371,929.307983 1404.641479,929.307983 1163.440430,929.307983 
	C1161.447998,922.826355 1160.848267,211.503326 1163.002808,199.138916 
	C1404.032227,199.138916 1645.153198,199.138916 1887.671997,199.138916 
	C1887.671997,209.977539 1887.671997,220.494308 1887.671997,232.008850 
M1699.054688,511.000732 
	C1699.054688,464.787140 1699.054688,418.573517 1699.054688,372.237061 
	C1583.751587,372.237061 1469.634033,372.237061 1355.604004,372.237061 
	C1353.474976,386.629639 1354.185547,750.048157 1356.317261,756.979370 
	C1470.095703,756.979370 1583.922241,756.979370 1699.054565,756.979370 
	C1699.054565,675.355896 1699.054565,594.178345 1699.054688,511.000732 
z"/>
<path fill="#FEFEFF" opacity="1.000000" stroke="none" 
	d="
M334.085510,1940.083252 
	C390.866455,1892.701782 455.085907,1863.029419 527.252563,1850.592773 
	C563.665161,1844.317627 600.300171,1844.715210 636.838257,1848.550903 
	C700.112488,1855.193481 759.113770,1875.098999 812.461853,1909.890137 
	C903.670898,1969.372559 961.297974,2052.942871 987.967590,2158.269287 
	C1036.364136,2349.401855 927.253296,2584.393066 694.859375,2643.625732 
	C555.530701,2679.137695 430.372681,2648.057373 322.574280,2553.791992 
	C251.858765,2491.954102 207.357315,2412.936035 193.144348,2319.751465 
	C173.258804,2189.375488 206.641739,2073.506348 296.426514,1975.432739 
	C307.861359,1962.942383 321.117035,1952.119019 334.085510,1940.083252 
M670.286804,2449.438232 
	C681.351624,2444.067871 692.789612,2439.345459 703.421143,2433.222900 
	C776.231995,2391.291504 826.563965,2291.746094 796.110779,2191.713379 
	C758.260681,2067.383301 636.068359,2018.405151 533.859131,2046.379028 
	C448.202576,2069.822510 371.090424,2158.769287 381.591492,2271.708984 
	C387.213318,2332.172852 413.984772,2382.270264 462.091248,2418.976074 
	C524.759521,2466.792480 594.406006,2476.329590 670.286804,2449.438232 
z"/>
<path fill="#FEFEFF" opacity="1.000000" stroke="none" 
	d="
M1117.884155,2281.972900 
	C1114.375488,2212.052734 1125.313599,2145.814941 1153.789917,2082.474365 
	C1206.461792,1965.315552 1323.900879,1872.081055 1451.844849,1852.006226 
	C1583.294189,1831.381348 1700.802856,1863.827393 1799.327393,1954.668091 
	C1870.978027,2020.730835 1912.602661,2103.874268 1925.370728,2200.398926 
	C1937.595703,2292.817871 1917.792358,2379.242676 1870.465088,2459.339844 
	C1810.836670,2560.255859 1722.303589,2622.280029 1608.871216,2647.324219 
	C1478.303833,2676.151855 1360.476562,2645.592773 1258.808228,2559.636475 
	C1182.866455,2495.431152 1137.212891,2412.423096 1121.587036,2313.647217 
	C1119.975830,2303.462891 1119.125854,2293.158203 1117.884155,2281.972900 
M1546.136597,2040.390503 
	C1522.506470,2038.903442 1498.996338,2037.985352 1475.508545,2043.061646 
	C1381.667725,2063.342773 1293.585571,2160.508545 1312.729492,2284.269775 
	C1332.413452,2411.521973 1451.541260,2481.490967 1561.867554,2460.295654 
	C1693.487549,2435.009521 1753.551514,2307.533203 1730.188965,2209.639648 
	C1716.174438,2150.915771 1686.595093,2103.529785 1634.905396,2071.098145 
	C1608.256592,2054.377686 1579.077881,2044.640747 1546.136597,2040.390503 
z"/>
<path fill="#FEFEFF" opacity="1.000000" stroke="none" 
	d="
M655.994751,162.335999 
	C667.955933,162.335999 678.918274,162.335999 690.943909,162.335999 
	C691.106323,166.452866 691.365356,169.991531 691.367432,173.530350 
	C691.394165,219.520004 691.484558,265.510132 691.272156,311.498840 
	C691.241577,318.114349 692.848816,323.663513 696.289551,329.275116 
	C818.850769,529.164429 941.306946,729.118164 1063.758301,929.074768 
	C1065.591553,932.068420 1067.179932,935.212097 1069.429810,939.273865 
	C987.813721,939.273865 907.655396,939.273865 826.068970,939.273865 
	C749.138672,811.978394 671.699585,683.841125 593.571106,554.563171 
	C590.964233,558.619263 588.997803,561.522644 587.186401,564.519775 
	C513.455688,686.513245 439.688019,808.484375 366.158112,930.598755 
	C362.111816,937.318604 357.883575,940.070984 349.761566,940.031067 
	C276.113220,939.669739 202.462357,939.819580 128.812241,939.819702 
	C125.497757,939.819702 122.183266,939.819641 118.571159,939.819641 
	C118.002335,934.996765 121.206177,932.137024 123.168755,928.924194 
	C170.392731,851.615601 217.687744,774.350403 264.979462,697.083130 
	C340.263855,574.080444 415.528625,451.065643 490.932739,328.136353 
	C494.229401,322.761871 495.523010,317.438934 495.501160,311.230164 
	C495.340332,265.574280 495.413086,219.917633 495.412323,174.261215 
	C495.412262,170.664658 495.412323,167.068115 495.412323,162.335999 
	C549.220154,162.335999 602.108093,162.335999 655.994751,162.335999 
z"/>
<path fill="#FFFFFF" opacity="1.000000" stroke="none" 
	d="
M1618.945068,1745.978271 
	C1618.945068,1751.628784 1618.945068,1756.283447 1618.945068,1761.633789 
	C1555.389282,1761.633789 1492.285889,1761.633789 1428.142578,1761.633789 
	C1428.142578,1709.193970 1428.142578,1657.058350 1428.142578,1604.015869 
	C1364.281494,1604.015869 1301.449219,1604.015869 1238.023071,1604.015869 
	C1238.023071,1546.291870 1238.023071,1489.485596 1238.023071,1431.705322 
	C1300.998657,1431.705322 1363.819336,1431.705322 1426.371582,1431.705322 
	C1428.517700,1423.717651 1429.044922,1350.057861 1427.175537,1336.604004 
	C1364.470337,1336.604004 1301.629761,1336.604004 1238.107666,1336.604004 
	C1238.107666,1278.898804 1238.107666,1222.082886 1238.107666,1164.028076 
	C1301.003174,1164.028076 1364.096802,1164.028076 1428.216919,1164.028076 
	C1428.216919,1114.996216 1428.216919,1067.186157 1428.216919,1018.865295 
	C1492.075684,1018.865295 1554.894775,1018.865295 1618.944946,1018.865295 
	C1618.944946,1261.215576 1618.944946,1503.098877 1618.945068,1745.978271 
z"/>
<path fill="#FEFFFF" opacity="1.000000" stroke="none" 
	d="
M781.999573,1448.573730 
	C750.419922,1448.573853 719.840271,1448.573853 688.351929,1448.573853 
	C688.351929,1553.453491 688.351929,1657.276978 688.351929,1761.713989 
	C624.605896,1761.713989 561.776001,1761.713989 498.908630,1761.713989 
	C497.078369,1754.932495 496.369629,1033.818848 498.294586,1018.955688 
	C561.041016,1018.955688 623.870972,1018.955688 687.697632,1018.955688 
	C687.697632,1104.155884 687.697632,1189.295898 687.697632,1275.693726 
	C720.154480,1276.385254 751.658386,1275.919067 783.150879,1276.004028 
	C814.774963,1276.089233 846.399414,1276.022705 878.700928,1276.022705 
	C878.700928,1333.532471 878.700928,1390.345581 878.700928,1448.573730 
	C846.706360,1448.573730 814.852966,1448.573730 781.999573,1448.573730 
z"/>
<path fill="#003d91" opacity="1.000000" stroke="none"
	d="
M1699.054688,512.000732 
	C1699.054565,594.178345 1699.054565,675.355896 1699.054565,756.979370 
	C1583.922241,756.979370 1470.095703,756.979370 1356.317261,756.979370 
	C1354.185547,750.048157 1353.474976,386.629639 1355.604004,372.237061 
	C1469.634033,372.237061 1583.751587,372.237061 1699.054688,372.237061 
	C1699.054688,418.573517 1699.054688,464.787140 1699.054688,512.000732 
z"/>
<path fill="#003d91" opacity="1.000000" stroke="none" 
	d="
M669.551025,2449.691162 
	C594.406006,2476.329590 524.759521,2466.792480 462.091248,2418.976074 
	C413.984772,2382.270264 387.213318,2332.172852 381.591492,2271.708984 
	C371.090424,2158.769287 448.202576,2069.822510 533.859131,2046.379028 
	C636.068359,2018.405151 758.260681,2067.383301 796.110779,2191.713379 
	C826.563965,2291.746094 776.231995,2391.291504 703.421143,2433.222900 
	C692.789612,2439.345459 681.351624,2444.067871 669.551025,2449.691162 
z"/>
<path fill="#003d91" opacity="1.000000" stroke="none" 
	d="
M1547.039307,2040.494263 
	C1579.077881,2044.640747 1608.256592,2054.377686 1634.905396,2071.098145 
	C1686.595093,2103.529785 1716.174438,2150.915771 1730.188965,2209.639648 
	C1753.551514,2307.533203 1693.487549,2435.009521 1561.867554,2460.295654 
	C1451.541260,2481.490967 1332.413452,2411.521973 1312.729492,2284.269775 
	C1293.585571,2160.508545 1381.667725,2063.342773 1475.508545,2043.061646 
	C1498.996338,2037.985352 1522.506470,2038.903442 1547.039307,2040.494263 
z"/>
</svg>